:SAMPLES-PER-SECOND 30
:FULLY-SPECIFIED
:DEGREES
257
root  -8.80483 36.2486 -2.48277 -2.7554 -68.1679 0.152435
RightUpLeg  21.1337 5.32454 6.59646
RightLeg  26.6978 3.32392 1.5478
RightFoot  -19.593 0.181035 4.54857
RightToes  -1.16417e-010 0 -3.6325e-017
Spine  8.82752 1.61096 5.24329
Spine1  10.392 8.66774 -22.7682
HEad  -20.4577 -22.5368 24.0218
LeftShoulder1  3.47734 -9.04168 -21.3554
LeftArm  -24.3931 2.92153 -28.5723
LeftForeArm  -11.5798 -40.9516 -10.3987
LeftHand  -0.27909 2.96206 12.7706
RightShoulder  1.58199 3.34425 16.4637
RightArm  -62.7046 -19.5269 28.3335
RightForeArm  123.808 48.712 165.653
RightHand  -1.76061 3.33901 -23.3769
LeftUpLeg  -23.4133 -8.4386 -9.51693
LeftLeg  48.7592 4.37318 5.77362
LeftFoot  -17.0119 0.17416 3.15159
LeftToes  6.91183e-011 3.39355e-011 2.1261e-011
258
root  -8.91161 35.8108 -2.18029 -3.64056 -67.0623 1.01001
RightUpLeg  22.3602 4.97955 7.33023
RightLeg  26.9162 -0.0762075 -0.273672
RightFoot  -23.1347 0.170823 3.11317
RightToes  -1.16417e-010 0 -3.6325e-017
Spine  6.95931 -0.0664153 3.78528
Spine1  13.5919 6.56411 -20.0167
HEad  -23.0756 -19.069 23.2018
LeftShoulder1  3.97541 -10.184 -22.7714
LeftArm  -24.6879 3.73184 -30.8261
LeftForeArm  -15.273 -33.4648 -8.22723
LeftHand  -0.285651 3.40953 16.2321
RightShoulder  1.45183 2.98291 15.6824
RightArm  -67.1489 -14.9943 31.1531
RightForeArm  122.497 44.6774 167.208
RightHand  -1.75391 3.73074 -22.3062
LeftUpLeg  -23.963 -9.00716 -10.8327
LeftLeg  50.5048 4.73806 6.57971
LeftFoot  -18.4871 0.322805 3.31708
LeftToes  6.91183e-011 3.39355e-011 2.1261e-011
259
root  -8.69182 36.4716 -1.79237 -0.909546 -70.5102 -1.11417
RightUpLeg  19.57 5.00576 6.42471
RightLeg  28.4446 -2.56424 -1.70057
RightFoot  -17.5967 0.0564196 3.34262
RightToes  -1.16417e-010 0 -3.6325e-017
Spine  6.58552 -0.453559 5.36635
Spine1  14.4963 6.18943 -19.4426
HEad  -25.0451 -14.9134 21.2325
LeftShoulder1  4.28819 -11.0467 -23.2174
LeftArm  -20.3348 -0.80897 -33.6805
LeftForeArm  -17.7487 -22.2763 -6.26388
LeftHand  -0.337102 3.32042 18.5845
RightShoulder  1.53604 3.19037 16.2809
RightArm  -59.2598 -8.56005 36.3471
RightForeArm  126.059 46.9132 166.529
RightHand  -1.45849 2.99102 -20.2109
LeftUpLeg  -24.3057 -4.68413 -9.81024
LeftLeg  48.2606 3.76451 4.95596
LeftFoot  -12.8751 0.0972438 3.39222
LeftToes  6.91183e-011 3.39355e-011 2.1261e-011
260
root  -8.00352 37.9527 -1.31498 1.49039 -76.6684 -3.38901
RightUpLeg  12.022 5.15226 2.97227
RightLeg  34.8987 -0.859312 -0.868037
RightFoot  -2.73086 -0.260301 3.41252
RightToes  -1.16417e-010 0 -3.6325e-017
Spine  9.25712 -0.623956 6.70457
Spine1  13.5684 5.76307 -19.0802
HEad  -26.9935 -8.9328 17.0288
LeftShoulder1  4.37796 -11.5021 -22.9005
LeftArm  -15.682 -6.69863 -35.9314
LeftForeArm  -15.0104 -16.0126 -7.7754
LeftHand  -0.466277 2.53712 18.8603
RightShoulder  1.71764 3.88625 16.6231
RightArm  -46.0278 -1.15211 44.2314
RightForeArm  130.938 57.9187 160.693
RightHand  -1.17373 2.33491 -17.7711
LeftUpLeg  -21.5455 2.77027 -8.90753
LeftLeg  39.3082 1.78988 2.10857
LeftFoot  -5.30307 -0.221096 4.69522
LeftToes  6.91183e-011 3.39355e-011 2.1261e-011
261
root  -7.06816 39.5041 -0.902434 -1.34976 -80.1305 -0.744232
RightUpLeg  1.74288 3.92335 -0.375655
RightLeg  44.3946 -2.38049 -2.9934
RightFoot  15.1824 -0.571546 2.83103
RightToes  -1.16417e-010 0 -3.6325e-017
Spine  13.2906 -1.68943 3.43517
Spine1  13.1678 2.74427 -14.882
HEad  -29.1095 -1.91276 10.8996
LeftShoulder1  4.20718 -11.6701 -21.3586
LeftArm  -8.59892 -11.8795 -38.4277
LeftForeArm  -15.0593 -19.1774 -7.36988
LeftHand  -0.79381 0.250983 18.0058
RightShoulder  1.77345 4.50359 15.4101
RightArm  -36.223 5.53934 51.8907
RightForeArm  115.124 74.604 131.705
RightHand  -1.24669 3.39099 -16.611
LeftUpLeg  -16.9221 8.29677 -9.07052
LeftLeg  26.394 -2.26546 -1.02293
LeftFoot  3.86047 0.207781 -0.934846
LeftToes  6.91183e-011 3.39355e-011 2.1261e-011
262
root  -6.42101 40.6616 -0.529411 -3.55603 -79.1447 1.55182
RightUpLeg  -8.38498 -0.333383 -1.73528
RightLeg  53.2837 -7.74416 -11.3651
RightFoot  25.0961 -0.577826 2.29818
RightToes  -1.16417e-010 0 -3.6325e-017
Spine  15.999 -3.45014 -1.18186
Spine1  13.4232 -2.23356 -6.83628
HEad  -30.2828 4.19873 4.37454
LeftShoulder1  3.7406 -11.6673 -18.0596
LeftArm  -7.95101 -16.8259 -40.2546
LeftForeArm  -12.1124 -27.675 -6.34632
LeftHand  -1.16984 -2.4109 17.5062
RightShoulder  1.64274 4.57976 13.3833
RightArm  -31.245 10.7853 56.7513
RightForeArm  32.2871 72.8742 37.5937
RightHand  -1.62066 5.50559 -17.4275
LeftUpLeg  -12.7542 8.44641 -7.87822
LeftLeg  16.3496 -3.5594 -2.21144
LeftFoot  12.5446 3.21505 -15.5078
LeftToes  6.91183e-011 3.39355e-011 2.1261e-011
263
root  -6.15367 41.7062 -0.0621383 -0.343292 -77.3166 -1.17767
RightUpLeg  -17.5208 -5.1072 -1.09965
RightLeg  58.5045 -10.7868 -18.5564
RightFoot  24.9651 -0.00643122 0.541126
RightToes  -1.16417e-010 0 -3.6325e-017
Spine  17.3144 -4.82344 -3.61384
Spine1  12.5725 -6.35387 1.20772
HEad  -29.5143 8.53252 -1.07583
LeftShoulder1  3.16275 -11.6092 -13.9997
LeftArm  -15.1382 -21.5394 -38.855
LeftForeArm  -4.13487 -37.5814 -8.83244
LeftHand  -1.49266 -3.88416 18.7916
RightShoulder  1.50422 4.23814 12.4161
RightArm  -29.2636 13.5962 58.0943
RightForeArm  10.2322 50.1852 11.8078
RightHand  -1.88974 7.13667 -17.7169
LeftUpLeg  -9.47673 6.34666 -5.26239
LeftLeg  13.0814 0.486597 -1.45985
LeftFoot  15.844 6.05715 -25.3481
LeftToes  6.91183e-011 3.39355e-011 2.1261e-011
264
root  -6.06684 42.4321 0.465714 0.0629883 -77.6966 -1.6608
RightUpLeg  -24.9738 -6.66642 -0.0987049
RightLeg  58.8252 -9.27156 -16.51
RightFoot  22.5391 -0.144531 1.01016
RightToes  -1.16417e-010 0 -3.6325e-017
Spine  18.38 -5.14595 -4.98339
Spine1  10.1942 -8.13984 6.19035
HEad  -27.5077 11.6162 -5.11256
LeftShoulder1  2.73328 -11.3661 -11.188
LeftArm  -22.3702 -24.5018 -33.1566
LeftForeArm  1.25926 -50.3201 -13.5493
LeftHand  -1.58981 -3.00755 22.0963
RightShoulder  1.5478 4.03908 13.6126
RightArm  -29.1582 14.202 56.0049
RightForeArm  1.29537 29.294 6.60322
RightHand  -1.81841 7.73573 -16.303
LeftUpLeg  -6.55604 8.50246 -3.65716
LeftLeg  17.9832 1.26433 0.419741
LeftFoot  11.8233 4.76417 -23.0714
LeftToes  6.91183e-011 3.39355e-011 2.1261e-011
265
root  -6.21476 42.52 1.02693 -3.29828 -80.4563 0.536865
RightUpLeg  -29.4801 -4.26432 0.469703
RightLeg  55.8062 -5.63143 -9.31807
RightFoot  23.5827 -1.66984 5.77914
RightToes  -1.16417e-010 0 -3.6325e-017
Spine  19.0274 -4.7966 -6.04073
Spine1  7.54824 -8.25759 8.40059
HEad  -25.5354 14.2402 -8.47795
LeftShoulder1  2.37124 -10.2019 -9.99258
LeftArm  -32.2708 -24.7842 -25.1015
LeftForeArm  10.7144 -66.4023 -27.1911
LeftHand  -1.25488 -0.374836 25.1274
RightShoulder  1.76577 4.19647 16.2631
RightArm  -32.0187 13.9144 51.3748
RightForeArm  -4.04241 10.3414 5.24031
RightHand  -1.6707 7.1209 -15.7524
LeftUpLeg  -1.23415 7.57389 -2.26308
LeftLeg  23.9484 3.27944 1.96052
LeftFoot  7.26254 2.4545 -15.3235
LeftToes  6.91183e-011 3.39355e-011 2.1261e-011
266
root  -6.73019 42.1226 1.64233 -14.2331 -84.8583 10.4741
RightUpLeg  -31.5296 0.800808 1.34789
RightLeg  50.1758 -2.51903 -3.59792
RightFoot  27.2226 -3.26147 9.87511
RightToes  -1.16417e-010 0 -3.6325e-017
Spine  17.8645 -4.11423 -6.75184
Spine1  5.66071 -7.70592 10.0943
HEad  -23.4778 17.0927 -11.9759
LeftShoulder1  1.77499 -7.44438 -8.75033
LeftArm  -44.0102 -22.6576 -18.2329
LeftForeArm  50.3805 -78.3705 -75.7077
LeftHand  -0.868555 1.74533 27.337
RightShoulder  2.00852 4.47284 18.7188
RightArm  -31.8951 12.7435 45.6972
RightForeArm  -6.95404 -3.78806 3.87696
RightHand  -1.43349 5.20208 -15.8953
LeftUpLeg  6.20943 5.11687 -2.14607
LeftLeg  24.8902 4.28644 2.55639
LeftFoot  7.3625 1.53184 -9.63094
LeftToes  6.91183e-011 3.39355e-011 2.1261e-011
